<?xml version="1.0" standalone="yes"?>
<svg xmlns="http://www.w3.org/2000/svg" width="200" height="200">
<path style="fill:#ffffff; stroke:none;" d="M0 0L0 200L200 200L200 0L0 0z"/>
<path style="fill:#ffdc69; stroke:none;" d="M94.6667 32.3333L95.3333 32.6667L94.6667 32.3333z"/>
<path style="fill:#fdca1e; stroke:none;" d="M96 32.5586C89.0166 34.3566 83.8745 41.1255 79 46L45 80C39.0627 85.9468 32.6772 91.8255 34.2245 101C36.236 112.926 53.8436 124.844 62 133C70.7541 141.754 87.7882 166.742 102 163.463C109.397 161.757 114.889 154.111 120 149L154 115C159.666 109.333 166.348 103.894 164.771 95C162.766 83.693 143.879 70.879 136 63C127.188 54.1882 110.177 28.9087 96 32.5586z"/>
<path style="fill:#ffdc69; stroke:none;" d="M103 32L104 33L103 32M92 33L93 34L92 33M91 34L92 35L91 34M107 34L108 35L107 34M108 35L109 36L108 35M109 36L110 37L109 36M110 37L111 38L110 37M111 38L112 39L111 38M112 39L113 40L112 39M113 40L114 41L113 40M114 41L115 42L114 41M115 42L116 43L115 42M116 43L117 44L116 43M117 44L118 45L117 44M118 45L119 46L118 45M119 46L120 47L119 46M120 47L121 48L120 47M121 48L122 49L121 48M122 49L123 50L122 49M123 50L124 51L123 50z"/>
<path style="fill:#80660f; stroke:none;" d="M108 51L108 52L112 53L112 52L108 51z"/>
<path style="fill:#ffdc69; stroke:none;" d="M124 51L125 52L124 51z"/>
<path style="fill:#070502; stroke:none;" d="M102 77L107 84C112.4 79.4212 119.012 68.1808 126.57 77.1127C128.547 79.4487 129.235 82.5402 131 85C137.069 72.3891 127.352 65.7521 118.093 59.2361C114.581 56.7641 112.325 50.6613 107.015 53.0718C95.299 58.3912 108.719 61.8181 110.377 66.1474C112.512 71.7184 105.931 75.0433 102 77z"/>
<path style="fill:#ffdc69; stroke:none;" d="M125 52L126 53L125 52M126 53L127 54L126 53z"/>
<path style="fill:#80660f; stroke:none;" d="M114 54L115 55L114 54z"/>
<path style="fill:#ffdc69; stroke:none;" d="M127 54L128 55L127 54z"/>
<path style="fill:#80660f; stroke:none;" d="M78 55L78 56L84 56L78 55z"/>
<path style="fill:#ffdc69; stroke:none;" d="M128 55L129 56L128 55z"/>
<path style="fill:#070502; stroke:none;" d="M78 56L78 57L85 61C80.0863 67.0376 77.5204 64.6539 71 63C73.2793 71.7065 79.0159 69.8029 84.9992 74.3179C91.9007 79.5257 100.463 89.4474 104.682 97C108.168 103.24 104.941 109.166 114 111C111.475 101.018 118.138 99.8935 123 108C125.51 105.1 126.5 101.571 123.562 98.3943C119.354 93.8428 112.617 91.7775 108.039 87C103 81.741 97.3613 76.0903 93.3441 70C87.8574 61.6816 90.1887 56.035 78 56z"/>
<path style="fill:#80660f; stroke:none;" d="M86 56L87 57L86 56M114 56L115 57L114 56z"/>
<path style="fill:#ffdc69; stroke:none;" d="M129 56L130 57L129 56z"/>
<path style="fill:#80660f; stroke:none;" d="M88 57L89 58L88 57z"/>
<path style="fill:#ffdc69; stroke:none;" d="M130 57L131 58L130 57z"/>
<path style="fill:#80660f; stroke:none;" d="M80 58L81 59L80 58M89 58L90 59L89 58M101 58L102 59L101 58z"/>
<path style="fill:#ffdc69; stroke:none;" d="M131 58L132 59L131 58z"/>
<path style="fill:#80660f; stroke:none;" d="M117.667 59.3333L118.333 59.6667L117.667 59.3333z"/>
<path style="fill:#ffdc69; stroke:none;" d="M132 59L133 60L132 59z"/>
<path style="fill:#80660f; stroke:none;" d="M83 60L84 61L83 60M90.3333 60.6667L90.6667 61.3333L90.3333 60.6667M120 60L121 61L120 60z"/>
<path style="fill:#ffdc69; stroke:none;" d="M133 60L134 61L133 60z"/>
<path style="fill:#80660f; stroke:none;" d="M84 61L85 62L84 61M122 61L123 62L122 61z"/>
<path style="fill:#ffdc69; stroke:none;" d="M134 61L135 62L134 61z"/>
<path style="fill:#80660f; stroke:none;" d="M71.6667 62.3333L72.3333 62.6667L71.6667 62.3333M104 62L105 63L104 62M123 62L124 63L123 62z"/>
<path style="fill:#ffdc69; stroke:none;" d="M135 62L136 63L135 62z"/>
<path style="fill:#80660f; stroke:none;" d="M83 63L84 64L83 63M105.667 63.3333L106.333 63.6667L105.667 63.3333M109 63L110 64L109 63z"/>
<path style="fill:#ffdc69; stroke:none;" d="M136 63L137 64L136 63z"/>
<path style="fill:#80660f; stroke:none;" d="M75 64L76 65L75 64M82 64L83 65L82 64M126 64L127 65L126 64z"/>
<path style="fill:#ffdc69; stroke:none;" d="M137 64L138 65L137 64z"/>
<path style="fill:#80660f; stroke:none;" d="M71.3333 65.6667L71.6667 66.3333L71.3333 65.6667M76 65L77 66L76 65M81 65L82 66L81 65M127 65L128 66L127 65z"/>
<path style="fill:#ffdc69; stroke:none;" d="M138 65L139 66L138 65z"/>
<path style="fill:#80660f; stroke:none;" d="M78.6667 66.3333L79.3333 66.6667L78.6667 66.3333z"/>
<path style="fill:#ffdc69; stroke:none;" d="M139 66L140 67L139 66z"/>
<path style="fill:#80660f; stroke:none;" d="M91 67L92 68L91 67z"/>
<path style="fill:#ffdc69; stroke:none;" d="M140 67L141 68L140 67z"/>
<path style="fill:#80660f; stroke:none;" d="M72 68L73 69L72 68z"/>
<path style="fill:#ffdc69; stroke:none;" d="M141 68L142 69L141 68z"/>
<path style="fill:#80660f; stroke:none;" d="M73 69L74 70L73 69M92 69L93 70L92 69z"/>
<path style="fill:#ffdc69; stroke:none;" d="M142 69L143 70L142 69z"/>
<path style="fill:#80660f; stroke:none;" d="M74 70L75 71L74 70M93 70L94 71L93 70M131 70L132 71L131 70z"/>
<path style="fill:#ffdc69; stroke:none;" d="M143 70L144 71L143 70z"/>
<path style="fill:#80660f; stroke:none;" d="M76 71L77 72L76 71M110 71L111 72L110 71z"/>
<path style="fill:#ffdc69; stroke:none;" d="M144 71L145 72L144 71z"/>
<path style="fill:#80660f; stroke:none;" d="M79 72L79 73L84 73L79 72M109 72L110 73L109 72M132 72L133 73L132 72z"/>
<path style="fill:#ffdc69; stroke:none;" d="M145 72L146 73L145 72z"/>
<path style="fill:#80660f; stroke:none;" d="M108 73L109 74L108 73M120 73L120 74L123 74L120 73z"/>
<path style="fill:#ffdc69; stroke:none;" d="M146 73L147 74L146 73z"/>
<path style="fill:#80660f; stroke:none;" d="M96 74L97 75L96 74M107 74L108 75L107 74M115 74L115 75L119 75L115 74M124 74L125 75L124 74z"/>
<path style="fill:#ffdc69; stroke:none;" d="M147 74L148 75L147 74z"/>
<path style="fill:#80660f; stroke:none;" d="M97 75L98 76L97 75M105 75L106 76L105 75M114 75L115 76L114 75M125 75L126 76L125 75M133 75L133 80L134 80L133 75z"/>
<path style="fill:#ffdc69; stroke:none;" d="M148 75L149 76L148 75z"/>
<path style="fill:#80660f; stroke:none;" d="M98 76L99 77L98 76M102 76L103 77L102 76M113 76L114 77L113 76M126 76L127 77L126 76z"/>
<path style="fill:#ffdc69; stroke:none;" d="M149 76L150 77L149 76z"/>
<path style="fill:#80660f; stroke:none;" d="M88 77L89 78L88 77M112 77L113 78L112 77M127 77L128 78L127 77z"/>
<path style="fill:#ffdc69; stroke:none;" d="M150 77L151 78L150 77z"/>
<path style="fill:#80660f; stroke:none;" d="M89 78L90 79L89 78M102 78L103 79L102 78z"/>
<path style="fill:#ffdc69; stroke:none;" d="M151 78L152 79L151 78z"/>
<path style="fill:#80660f; stroke:none;" d="M90 79L91 80L90 79M103 79L104 80L103 79M128 79L129 80L128 79z"/>
<path style="fill:#ffdc69; stroke:none;" d="M152 79L153 80L152 79z"/>
<path style="fill:#80660f; stroke:none;" d="M91 80L92 81L91 80M104 80L105 81L104 80M110.333 80.6667L110.667 81.3333L110.333 80.6667z"/>
<path style="fill:#ffdc69; stroke:none;" d="M153 80L154 81L153 80z"/>
<path style="fill:#80660f; stroke:none;" d="M105 81L106 82L105 81z"/>
<path style="fill:#ffdc69; stroke:none;" d="M154 81L155 82L154 81z"/>
<path style="fill:#80660f; stroke:none;" d="M109 82L110 83L109 82M132 82L133 83L132 82z"/>
<path style="fill:#ffdc69; stroke:none;" d="M155 82L156 83L155 82z"/>
<path style="fill:#80660f; stroke:none;" d="M104 83L105 84L104 83M108 83L109 84L108 83M129 83L131 86L129 83z"/>
<path style="fill:#ffdc69; stroke:none;" d="M156 83L157 84L156 83z"/>
<path style="fill:#80660f; stroke:none;" d="M94 84L95 85L94 84M105 84L106 85L105 84M131 84L132 85L131 84z"/>
<path style="fill:#ffdc69; stroke:none;" d="M157 84L158 85L157 84z"/>
<path style="fill:#80660f; stroke:none;" d="M91 86L91 87L94 87L91 86M95 85L96 86L95 85M106 85L107 86L106 85z"/>
<path style="fill:#ffdc69; stroke:none;" d="M158 85L159 86L158 85z"/>
<path style="fill:#070502; stroke:none;" d="M91.9599 87.3457C87.2948 87.4111 75.9362 99.0434 73.7122 103.025C71.5058 106.974 76.1401 110.77 80.0008 110.458C85.5382 110.01 93.9714 99.6981 96.267 95C97.7239 92.0182 95.6806 87.2935 91.9599 87.3457z"/>
<path style="fill:#80660f; stroke:none;" d="M96 86L97 87L96 86M107 86L108 87L107 86z"/>
<path style="fill:#ffdc69; stroke:none;" d="M159 86L160 87L159 86z"/>
<path style="fill:#80660f; stroke:none;" d="M108 87L109 88L108 87z"/>
<path style="fill:#ffdc69; stroke:none;" d="M160 87L161 88L160 87M161 88L162 89L161 88M36 89L37 90L36 89M162 89L163 90L162 89M35 90L36 91L35 90z"/>
<path style="fill:#80660f; stroke:none;" d="M96 90L97 91L96 90M99 90L100 91L99 90z"/>
<path style="fill:#ffdc69; stroke:none;" d="M163 90L164 91L163 90z"/>
<path style="fill:#80660f; stroke:none;" d="M97 91L98 92L97 91M100 91L101 92L100 91z"/>
<path style="fill:#ffdc69; stroke:none;" d="M34 92L35 93L34 92z"/>
<path style="fill:#80660f; stroke:none;" d="M98.3333 92.6667L98.6667 93.3333L98.3333 92.6667M101 92L102 93L101 92z"/>
<path style="fill:#ffdc69; stroke:none;" d="M164 92L165 93L164 92z"/>
<path style="fill:#80660f; stroke:none;" d="M83 93L84 94L83 93M102 93L103 94L102 93z"/>
<path style="fill:#ffdc69; stroke:none;" d="M33 94L33 102L34 102L33 94z"/>
<path style="fill:#80660f; stroke:none;" d="M82 94L83 95L82 94M97 94L98 95L97 94M115.667 94.3333L116.333 94.6667L115.667 94.3333M81 95L82 96L81 95M96 95L97 96L96 95M119 95L120 96L119 95z"/>
<path style="fill:#ffdc69; stroke:none;" d="M165 95L165 101L166 101L165 95z"/>
<path style="fill:#80660f; stroke:none;" d="M80 96L81 97L80 96M95 96L96 97L95 96M121 96L122 97L121 96M79 97L80 98L79 97M94 97L95 98L94 97M105 97L106 98L105 97M123 97L124 98L123 97M78 98L79 99L78 98M93 98L94 99L93 98M106.333 98.6667L106.667 99.3333L106.333 98.6667M124 98L125 99L124 98M92 99L93 100L92 99M91 100L92 101L91 100M125 100L126 101L125 100M115.667 101.333L116.333 101.667L115.667 101.333M119 101L120 102L119 101M105 102L105 105L106 105L105 102M113 102L114 103L113 102z"/>
<path style="fill:#ffdc69; stroke:none;" d="M164.333 102.667L164.667 103.333L164.333 102.667M34 103L35 104L34 103z"/>
<path style="fill:#80660f; stroke:none;" d="M112 103L113 104L112 103M120 103L121 104L120 103M125 104L126 105L125 104z"/>
<path style="fill:#ffdc69; stroke:none;" d="M35 105L36 106L35 105z"/>
<path style="fill:#80660f; stroke:none;" d="M121 105L122 106L121 105z"/>
<path style="fill:#ffdc69; stroke:none;" d="M163 105L164 106L163 105M36 106L37 107L36 106z"/>
<path style="fill:#80660f; stroke:none;" d="M72 106L73 107L72 106M112 106L113 107L112 106z"/>
<path style="fill:#ffdc69; stroke:none;" d="M162 106L163 107L162 106z"/>
<path style="fill:#80660f; stroke:none;" d="M122 107L123 108L122 107M124 107L125 108L124 107z"/>
<path style="fill:#ffdc69; stroke:none;" d="M161 107L162 108L161 107z"/>
<path style="fill:#80660f; stroke:none;" d="M74 108L75 109L74 108M107 108L108 109L107 108M113 108L114 109L113 108M123 108L124 109L123 108z"/>
<path style="fill:#ffdc69; stroke:none;" d="M160 108L161 109L160 108z"/>
<path style="fill:#80660f; stroke:none;" d="M75 109L76 110L75 109M108 109L109 110L108 109z"/>
<path style="fill:#ffdc69; stroke:none;" d="M159 109L160 110L159 109z"/>
<path style="fill:#80660f; stroke:none;" d="M77 110L78 111L77 110M110 110L111 111L110 110M114 110L115 111L114 110z"/>
<path style="fill:#ffdc69; stroke:none;" d="M158 110L159 111L158 110z"/>
<path style="fill:#80660f; stroke:none;" d="M78 111L78 112L81 112L78 111M112.667 111.333L113.333 111.667L112.667 111.333z"/>
<path style="fill:#ffdc69; stroke:none;" d="M157 111L158 112L157 111M156 112L157 113L156 112M155 113L156 114L155 113M154 114L155 115L154 114M153 115L154 116L153 115M152 116L153 117L152 116M151 117L152 118L151 117M150 118L151 119L150 118z"/>
<path style="fill:#80660f; stroke:none;" d="M71 119L71 120L76 122C77.2347 118.725 73.4989 119.041 71 119M80 120L80 121L86 120L80 120M89 119L89 120L97 120L97 129L95 127L94 127L95 130L97 130L98 119L93 121L89 119M104 119L104 120L107 120C107.058 126.37 108.111 129.774 115 130L115 129C106.139 128.315 107.814 120.268 116 120L116 119L104 119M117 119L117 120L120 120L117 124L117 125C120.321 123.901 120.737 122.41 121 119L117 119M122 120L122 121L130 121L122 120z"/>
<path style="fill:#ffdc69; stroke:none;" d="M149 119L150 120L149 119z"/>
<path style="fill:#80660f; stroke:none;" d="M69 120L70 121L69 120z"/>
<path style="fill:#070502; stroke:none;" d="M77 129L77 124L72 127L72 122L76 122L76 120C66.5076 120.312 68.2397 128.896 77 129M79 129L82 127L83 127L84 127L87 129L86 120C80.1561 120.451 79.1318 123.552 79 129M89 120L89 129L92 129L92 125L97 129L97 120L95 122L89 120M104 120L104 127L99 124C100.588 133.515 106.977 126.371 107 120L104 120M109 120L109 129L116 129L116 120L109 120M117 120L117 124L120 124L120 120L117 120M127 126L127 127L122 127L122 129C127.146 128.939 132.527 125.301 125 123L125 122L129 122L129 120C123.457 120.182 120.5 123.607 127 126z"/>
<path style="fill:#ffdc69; stroke:none;" d="M148 120L149 121L148 120z"/>
<path style="fill:#80660f; stroke:none;" d="M86.3333 121.667L86.6667 122.333L86.3333 121.667M115 121L116 122L115 121z"/>
<path style="fill:#ffdc69; stroke:none;" d="M147 121L148 122L147 121z"/>
<path style="fill:#80660f; stroke:none;" d="M72 122L72 127L73 127L72 122M79 122L80 123L79 122M82 122L82 125L84 125L84 122L82 122z"/>
<path style="fill:#fdca1e; stroke:none;" d="M108 122L108 127L110 127L110 122L108 122z"/>
<path style="fill:#80660f; stroke:none;" d="M110 122L110 127L111 127L110 122M125 122L126 123L125 122z"/>
<path style="fill:#ffdc69; stroke:none;" d="M146 122L147 123L146 122z"/>
<path style="fill:#fdca1e; stroke:none;" d="M83 123L84 124L83 123z"/>
<path style="fill:#80660f; stroke:none;" d="M128 123L129 124L128 123z"/>
<path style="fill:#ffdc69; stroke:none;" d="M145 123L146 124L145 123z"/>
<path style="fill:#80660f; stroke:none;" d="M74 124L75 125L74 124M77 124L77 129L79 129L77 124M87 124L87 129L88 129L87 124M122 124L123 125L122 124M129 124L130 125L129 124z"/>
<path style="fill:#ffdc69; stroke:none;" d="M144 124L145 125L144 124z"/>
<path style="fill:#80660f; stroke:none;" d="M92 125L92 129L93 129L92 125M123.667 125.333L124.333 125.667L123.667 125.333z"/>
<path style="fill:#ffdc69; stroke:none;" d="M143 125L144 126L143 125z"/>
<path style="fill:#80660f; stroke:none;" d="M102.667 126.333L103.333 126.667L102.667 126.333M126 126L127 127L126 126z"/>
<path style="fill:#ffdc69; stroke:none;" d="M142 126L143 127L142 126z"/>
<path style="fill:#80660f; stroke:none;" d="M69 127L70 128L69 127M129 127L130 128L129 127z"/>
<path style="fill:#ffdc69; stroke:none;" d="M141 127L142 128L141 127z"/>
<path style="fill:#80660f; stroke:none;" d="M99 128L100 129L99 128M106 128L107 129L106 128z"/>
<path style="fill:#ffdc69; stroke:none;" d="M140 128L141 129L140 128z"/>
<path style="fill:#80660f; stroke:none;" d="M71 129L71 130L77 130L71 129M79.6667 129.333L80.3333 129.667L79.6667 129.333M85.6667 129.333L86.3333 129.667L85.6667 129.333M90.6667 129.333L91.3333 129.667L90.6667 129.333M101 129L101 130L105 130L101 129M122 129L122 130L128 130L122 129z"/>
<path style="fill:#ffdc69; stroke:none;" d="M139 129L140 130L139 129M138 130L139 131L138 130M137 131L138 132L137 131z"/>
<path style="fill:#80660f; stroke:none;" d="M75 135L76 135L84 133C80.4755 131.525 77.1441 131.693 75 135M85 134L88 133L85 134z"/>
<path style="fill:#070502; stroke:none;" d="M88.1327 132.851C82.9253 134.582 85.0098 143.161 90.7762 141.663C96.0397 140.296 93.5575 131.048 88.1327 132.851z"/>
<path style="fill:#80660f; stroke:none;" d="M91 132L92 133L91 132M95 135L96 135L98 133L95 135z"/>
<path style="fill:#070502; stroke:none;" d="M98.2238 132.851C92.6621 134.733 95.7319 144.227 101.686 141.392C106.155 139.264 103.212 131.163 98.2238 132.851z"/>
<path style="fill:#80660f; stroke:none;" d="M101.667 132.333L102.333 132.667L101.667 132.333M114 137L113 137L113 142L106 142L109 133C98.4507 130.631 112.668 154.097 114 137M115 133L115 134L123 134L115 133z"/>
<path style="fill:#ffdc69; stroke:none;" d="M136 132L137 133L136 132z"/>
<path style="fill:#070502; stroke:none;" d="M76 133L78 142L81 142L84 133L76 133z"/>
<path style="fill:#80660f; stroke:none;" d="M93.3333 133.667L93.6667 134.333L93.3333 133.667M103 133L104 134L103 133z"/>
<path style="fill:#070502; stroke:none;" d="M106 133L106 142L113 142L113 137L109 140L109 133L106 133M115 138L120 139L120 140L115 140L115 142C120.061 141.94 125.358 138.342 118 136L118 135L122 135L122 133C117.824 133.137 115.728 133.638 115 138z"/>
<path style="fill:#ffdc69; stroke:none;" d="M135 133L136 134L135 133M134 134L135 135L134 134z"/>
<path style="fill:#80660f; stroke:none;" d="M81 135L81 142L82 142L81 135M88 135L88 140L89 140L88 135z"/>
<path style="fill:#fdca1e; stroke:none;" d="M89 135L89 140L90 140L89 135z"/>
<path style="fill:#80660f; stroke:none;" d="M90 135L90 140L91 140L90 135M98 135L98 140L99 140L98 135z"/>
<path style="fill:#fdca1e; stroke:none;" d="M99 135L99 140L100 140L99 135z"/>
<path style="fill:#80660f; stroke:none;" d="M100 135L100 140L101 140L100 135z"/>
<path style="fill:#ffdc69; stroke:none;" d="M133 135L134 136L133 135z"/>
<path style="fill:#80660f; stroke:none;" d="M121 136L122 137L121 136z"/>
<path style="fill:#ffdc69; stroke:none;" d="M132 136L133 137L132 136z"/>
<path style="fill:#80660f; stroke:none;" d="M110 137L110 140L111 140L110 137M122.333 137.667L122.667 138.333L122.333 137.667z"/>
<path style="fill:#ffdc69; stroke:none;" d="M131 137L132 138L131 137z"/>
<path style="fill:#80660f; stroke:none;" d="M116.667 138.333L117.333 138.667L116.667 138.333z"/>
<path style="fill:#ffdc69; stroke:none;" d="M130 138L131 139L130 138z"/>
<path style="fill:#80660f; stroke:none;" d="M119 139L120 140L119 139z"/>
<path style="fill:#ffdc69; stroke:none;" d="M129 139L130 140L129 139z"/>
<path style="fill:#80660f; stroke:none;" d="M93 140L94 141L93 140M95 140L96 141L95 140M122 140L123 141L122 140z"/>
<path style="fill:#ffdc69; stroke:none;" d="M128 140L129 141L128 140z"/>
<path style="fill:#80660f; stroke:none;" d="M85 141L86 142L85 141M103 141L104 142L103 141z"/>
<path style="fill:#ffdc69; stroke:none;" d="M127 141L128 142L127 141z"/>
<path style="fill:#80660f; stroke:none;" d="M79.6667 142.333L80.3333 142.667L79.6667 142.333M87 142L87 143L92 143L87 142M97 142L97 143L102 143L97 142M115 142L115 143L121 143L115 142z"/>
<path style="fill:#ffdc69; stroke:none;" d="M126 142L127 143L126 142M125 143L126 144L125 143M124 144L125 145L124 144M123 145L124 146L123 145M122 146L123 147L122 146M121 147L122 148L121 147M120 148L121 149L120 148M119 149L120 150L119 149M118 150L119 151L118 150M117 151L118 152L117 151M116 152L117 153L116 152M115 153L116 154L115 153M114 154L115 155L114 154M113 155L114 156L113 155M112 156L113 157L112 156M111 157L112 158L111 157M110 158L111 159L110 158M109 159L110 160L109 159M90 160L91 161L90 160M108 160L109 161L108 160M91 161L92 162L91 161M107 161L108 162L107 161M105 162L106 163L105 162M95 163L96 164L95 163M102.667 163.333L103.333 163.667L102.667 163.333z"/>
</svg>
