<?xml version="1.0" standalone="no"?>
<!DOCTYPE svg PUBLIC "-//W3C//DTD SVG 20010904//EN"
 "http://www.w3.org/TR/2001/REC-SVG-20010904/DTD/svg10.dtd">
<svg version="1.0" xmlns="http://www.w3.org/2000/svg"
 width="200.000000pt" height="200.000000pt" viewBox="0 0 200.000000 200.000000"
 preserveAspectRatio="xMidYMid meet">

<g transform="translate(0.000000,200.000000) scale(0.100000,-0.100000)"
fill="#000000" stroke="none">
<path d="M1048 1451 l-43 -40 22 -22 c11 -12 32 -23 45 -24 12 -1 26 -3 31 -4
4 0 7 -16 7 -35 0 -34 -21 -59 -76 -92 -18 -11 -18 -13 10 -43 36 -38 45 -39
58 -3 14 36 51 63 97 69 33 5 41 1 64 -27 16 -19 27 -44 27 -62 0 -41 20 -32
37 18 11 29 12 48 4 74 -13 44 -80 113 -137 141 -26 12 -44 28 -44 38 0 9 -13
25 -30 34 l-30 18 -42 -40z"/>
<path d="M780 1443 c0 -5 14 -20 32 -34 36 -30 33 -55 -6 -65 -17 -4 -34 1
-55 15 -37 27 -41 26 -41 -3 0 -29 45 -76 74 -76 49 0 72 -19 172 -138 93
-110 105 -129 100 -154 -7 -37 9 -71 45 -92 40 -23 53 -13 33 26 -16 31 -16
32 6 50 32 26 52 19 74 -27 l18 -39 14 24 c30 56 7 100 -63 119 -29 8 -57 31
-113 93 -139 153 -160 181 -160 219 -1 41 -17 65 -54 79 -32 12 -76 13 -76 3z"/>
<path d="M818 1049 c-54 -50 -98 -97 -98 -105 0 -7 18 -26 41 -41 l40 -27 96
96 96 96 -29 36 c-16 19 -33 35 -39 35 -5 0 -54 -40 -107 -90z"/>
<path d="M701 796 c-7 -8 -11 -30 -9 -48 3 -30 6 -33 41 -36 34 -3 37 -1 37
22 0 16 -6 26 -15 26 -8 0 -15 -8 -15 -17 0 -13 -3 -14 -11 -6 -17 17 -3 43
22 43 29 0 19 24 -13 28 -13 2 -30 -4 -37 -12z"/>
<path d="M800 791 c-15 -29 -13 -81 4 -81 8 0 17 6 20 13 5 10 7 10 12 0 8
-18 44 -16 44 2 0 9 -7 31 -14 50 -17 40 -49 47 -66 16z"/>
<path d="M890 760 c0 -37 4 -50 14 -50 8 0 17 10 19 23 l4 22 8 -22 c4 -13 16
-23 26 -23 16 0 19 8 19 44 0 48 -13 65 -35 46 -9 -7 -15 -8 -20 0 -3 5 -13
10 -21 10 -10 0 -14 -13 -14 -50z"/>
<path d="M1040 768 c-1 -38 -2 -41 -14 -25 -17 22 -36 22 -36 -2 0 -27 26 -44
55 -37 23 6 25 11 25 56 0 38 -4 50 -15 50 -11 0 -15 -12 -15 -42z"/>
<path d="M1090 795 c0 -8 5 -15 10 -15 6 0 10 -9 10 -19 0 -11 -4 -23 -10 -26
-21 -13 -9 -25 25 -25 19 0 35 5 35 10 0 6 -4 10 -10 10 -14 0 -13 47 2 52 21
7 -3 28 -33 28 -19 0 -29 -5 -29 -15z"/>
<path d="M1170 780 c0 -25 4 -31 18 -28 11 2 17 12 17 28 0 16 -6 26 -17 28
-14 3 -18 -3 -18 -28z"/>
<path d="M1227 803 c-16 -15 -6 -54 16 -63 l22 -9 -22 0 c-13 -1 -23 -6 -23
-12 0 -6 16 -9 38 -7 32 3 37 6 37 28 0 17 -7 26 -25 31 -24 7 -24 7 -2 8 34
2 28 31 -6 31 -16 0 -32 -3 -35 -7z"/>
<path d="M760 665 c0 -8 5 -15 10 -15 6 0 10 -16 10 -35 0 -28 4 -35 20 -35
16 0 20 7 20 35 0 19 5 35 10 35 6 0 10 7 10 15 0 11 -11 15 -40 15 -29 0 -40
-4 -40 -15z"/>
<path d="M863 673 c-19 -7 -16 -78 3 -93 27 -23 68 -1 72 38 5 51 -27 75 -75
55z m37 -49 c0 -14 -4 -23 -10 -19 -5 3 -10 15 -10 26 0 10 5 19 10 19 6 0 10
-12 10 -26z"/>
<path d="M962 668 c-16 -16 -16 -70 0 -86 7 -7 21 -12 33 -12 31 0 45 19 45
61 0 24 -5 39 -16 43 -25 9 -49 7 -62 -6z m48 -37 c0 -11 -4 -23 -10 -26 -6
-4 -10 5 -10 19 0 14 5 26 10 26 6 0 10 -9 10 -19z"/>
<path d="M1057 673 c-4 -3 -7 -26 -7 -50 l0 -43 45 0 c41 0 45 2 45 25 0 30
-36 36 -43 8 -3 -10 -5 1 -6 25 -1 39 -15 54 -34 35z"/>
<path d="M1157 673 c-16 -15 -6 -54 16 -63 l22 -9 -22 0 c-13 -1 -23 -6 -23
-12 0 -6 16 -9 38 -7 32 3 37 6 37 28 0 17 -7 26 -25 31 -24 7 -24 7 -2 8 34
2 28 31 -6 31 -16 0 -32 -3 -35 -7z"/>
</g>
</svg>
